<?xml version="1.0" standalone="no"?>
<!DOCTYPE svg PUBLIC "-//W3C//DTD SVG 20010904//EN"
 "http://www.w3.org/TR/2001/REC-SVG-20010904/DTD/svg10.dtd">
<svg version="1.0" xmlns="http://www.w3.org/2000/svg"
 width="700.000000pt" height="700.000000pt" viewBox="0 0 700.000000 700.000000"
 preserveAspectRatio="xMidYMid meet">
<metadata>
Created by potrace 1.14, written by Peter Selinger 2001-2017
</metadata>
<g transform="translate(0.000000,700.000000) scale(0.100000,-0.100000)"
fill="#000000" stroke="none">
<path d="M0 3500 l0 -3500 3500 0 3500 0 0 3500 0 3500 -3500 0 -3500 0 0
-3500z m5439 1864 c428 -63 774 -249 969 -523 41 -57 136 -231 129 -237 -5 -5
-754 -274 -763 -274 -6 0 -21 24 -35 52 -13 30 -52 82 -89 119 -51 52 -85 76
-160 112 -139 66 -220 82 -420 81 -149 -1 -174 -4 -255 -28 -221 -67 -314
-168 -303 -329 7 -117 82 -214 219 -282 81 -41 109 -49 489 -125 477 -96 725
-167 915 -259 248 -121 397 -257 481 -436 60 -129 69 -179 68 -390 0 -178 -2
-195 -27 -280 -75 -245 -229 -448 -456 -603 -319 -218 -668 -312 -1106 -299
-206 6 -326 22 -487 62 -436 111 -763 368 -945 743 -24 52 -42 96 -40 98 3 3
171 65 373 139 203 73 376 136 385 140 11 4 19 -7 32 -47 52 -165 191 -311
364 -381 232 -94 580 -98 800 -10 156 62 233 156 241 293 8 150 -57 246 -225
333 -138 70 -250 103 -622 177 -611 122 -850 216 -1067 422 -138 131 -215 265
-249 437 -26 128 -17 365 19 484 118 395 489 671 1057 787 157 32 218 37 418
39 121 1 220 -4 290 -15z m-2039 -419 l0 -375 -575 0 -575 0 -2 -1422 -3
-1423 -422 -3 -423 -2 0 1425 0 1425 -580 0 -580 0 0 375 0 375 1580 0 1580 0
0 -375z"/>
</g>
</svg>
